<svg width="1280" height="720" viewBox="0 0 1280 720" fill="none" xmlns="http://www.w3.org/2000/svg">
<g style="mix-blend-mode:exclusion">
<rect width="1280" height="720" fill="black"/>
<rect width="1280" height="720" fill="url(#paint0_linear_1_3)" fill-opacity="0.35"/>
<path d="M72.2784 70.3821V65.8182H93.7812V70.3821H85.7656V92H80.294V70.3821H72.2784ZM100.148 92.3707C98.8949 92.3707 97.7784 92.1534 96.7983 91.7188C95.8182 91.2756 95.0426 90.6236 94.4716 89.7628C93.9091 88.8935 93.6278 87.8111 93.6278 86.5156C93.6278 85.4247 93.8281 84.5085 94.2287 83.767C94.6293 83.0256 95.1747 82.429 95.8651 81.9773C96.5554 81.5256 97.3395 81.1847 98.2173 80.9545C99.1037 80.7244 100.033 80.5625 101.004 80.4688C102.146 80.3494 103.067 80.2386 103.766 80.1364C104.464 80.0256 104.972 79.8636 105.287 79.6506C105.602 79.4375 105.76 79.1222 105.76 78.7045V78.6278C105.76 77.8182 105.504 77.1918 104.993 76.7486C104.49 76.3054 103.774 76.0838 102.845 76.0838C101.865 76.0838 101.085 76.3011 100.506 76.7358C99.9261 77.1619 99.5426 77.6989 99.3551 78.3466L94.3182 77.9375C94.5739 76.7443 95.0767 75.7131 95.8267 74.8438C96.5767 73.9659 97.544 73.2926 98.7287 72.8239C99.9219 72.3466 101.303 72.108 102.871 72.108C103.962 72.108 105.006 72.2358 106.003 72.4915C107.009 72.7472 107.899 73.1435 108.675 73.6804C109.459 74.2173 110.077 74.9077 110.528 75.7514C110.98 76.5866 111.206 77.5881 111.206 78.7557V92H106.041V89.277H105.888C105.572 89.8906 105.151 90.4318 104.622 90.9006C104.094 91.3608 103.459 91.723 102.717 91.9872C101.976 92.2429 101.119 92.3707 100.148 92.3707ZM101.707 88.6122C102.509 88.6122 103.216 88.4545 103.83 88.1392C104.443 87.8153 104.925 87.3807 105.274 86.8352C105.624 86.2898 105.798 85.6719 105.798 84.9815V82.8977C105.628 83.0085 105.393 83.1108 105.095 83.2045C104.805 83.2898 104.477 83.3707 104.111 83.4474C103.744 83.5156 103.378 83.5795 103.011 83.6392C102.645 83.6903 102.312 83.7372 102.014 83.7798C101.375 83.8736 100.817 84.0227 100.339 84.2273C99.8622 84.4318 99.4915 84.7088 99.2273 85.0582C98.9631 85.3991 98.831 85.8253 98.831 86.3366C98.831 87.0781 99.0994 87.6449 99.6364 88.0369C100.182 88.4205 100.872 88.6122 101.707 88.6122ZM115.533 92V65.8182H120.979V75.6619H121.146C121.384 75.1335 121.729 74.5966 122.181 74.0511C122.641 73.4972 123.238 73.0369 123.971 72.6705C124.712 72.2955 125.633 72.108 126.732 72.108C128.164 72.108 129.485 72.483 130.695 73.233C131.906 73.9744 132.873 75.0952 133.597 76.5952C134.322 78.0866 134.684 79.9574 134.684 82.2074C134.684 84.3977 134.33 86.2472 133.623 87.7557C132.924 89.2557 131.969 90.3935 130.759 91.169C129.558 91.9361 128.211 92.3196 126.719 92.3196C125.663 92.3196 124.763 92.1449 124.022 91.7955C123.289 91.446 122.688 91.0071 122.219 90.4787C121.751 89.9418 121.393 89.4006 121.146 88.8551H120.903V92H115.533ZM120.864 82.1818C120.864 83.3494 121.026 84.3679 121.35 85.2372C121.674 86.1065 122.143 86.7841 122.756 87.2699C123.37 87.7472 124.116 87.9858 124.994 87.9858C125.88 87.9858 126.63 87.7429 127.244 87.2571C127.857 86.7628 128.322 86.081 128.637 85.2116C128.961 84.3338 129.123 83.3239 129.123 82.1818C129.123 81.0483 128.965 80.0511 128.65 79.1903C128.335 78.3295 127.87 77.6562 127.256 77.1705C126.643 76.6847 125.888 76.4418 124.994 76.4418C124.107 76.4418 123.357 76.6761 122.744 77.1449C122.138 77.6136 121.674 78.2784 121.35 79.1392C121.026 80 120.864 81.0142 120.864 82.1818ZM147.267 92.3835C145.247 92.3835 143.508 91.9744 142.051 91.1562C140.602 90.3295 139.485 89.1619 138.701 87.6534C137.917 86.1364 137.525 84.3423 137.525 82.2713C137.525 80.2514 137.917 78.4787 138.701 76.9531C139.485 75.4276 140.589 74.2386 142.012 73.3864C143.444 72.5341 145.123 72.108 147.049 72.108C148.345 72.108 149.551 72.3168 150.667 72.7344C151.792 73.1435 152.772 73.7614 153.608 74.5881C154.451 75.4148 155.108 76.4545 155.576 77.7074C156.045 78.9517 156.279 80.4091 156.279 82.0795V83.5753H139.699V80.2003H151.153C151.153 79.4162 150.983 78.7216 150.642 78.1165C150.301 77.5114 149.828 77.0384 149.223 76.6974C148.626 76.348 147.931 76.1733 147.139 76.1733C146.312 76.1733 145.579 76.3651 144.94 76.7486C144.309 77.1236 143.815 77.6307 143.457 78.2699C143.099 78.9006 142.916 79.6037 142.907 80.3793V83.5881C142.907 84.5597 143.086 85.3991 143.444 86.1065C143.811 86.8139 144.326 87.3594 144.991 87.7429C145.656 88.1264 146.444 88.3182 147.356 88.3182C147.961 88.3182 148.515 88.233 149.018 88.0625C149.521 87.892 149.951 87.6364 150.309 87.2955C150.667 86.9545 150.94 86.5369 151.127 86.0426L156.164 86.375C155.909 87.5852 155.385 88.642 154.592 89.5455C153.808 90.4403 152.794 91.1392 151.549 91.642C150.314 92.1364 148.886 92.3835 147.267 92.3835ZM165.279 65.8182V92H159.833V65.8182H165.279ZM175.241 92.3707C173.989 92.3707 172.872 92.1534 171.892 91.7188C170.912 91.2756 170.136 90.6236 169.565 89.7628C169.003 88.8935 168.722 87.8111 168.722 86.5156C168.722 85.4247 168.922 84.5085 169.322 83.767C169.723 83.0256 170.268 82.429 170.959 81.9773C171.649 81.5256 172.433 81.1847 173.311 80.9545C174.197 80.7244 175.126 80.5625 176.098 80.4688C177.24 80.3494 178.161 80.2386 178.859 80.1364C179.558 80.0256 180.065 79.8636 180.381 79.6506C180.696 79.4375 180.854 79.1222 180.854 78.7045V78.6278C180.854 77.8182 180.598 77.1918 180.087 76.7486C179.584 76.3054 178.868 76.0838 177.939 76.0838C176.959 76.0838 176.179 76.3011 175.599 76.7358C175.02 77.1619 174.636 77.6989 174.449 78.3466L169.412 77.9375C169.668 76.7443 170.17 75.7131 170.92 74.8438C171.67 73.9659 172.638 73.2926 173.822 72.8239C175.016 72.3466 176.396 72.108 177.964 72.108C179.055 72.108 180.099 72.2358 181.097 72.4915C182.102 72.7472 182.993 73.1435 183.768 73.6804C184.553 74.2173 185.17 74.9077 185.622 75.7514C186.074 76.5866 186.3 77.5881 186.3 78.7557V92H181.135V89.277H180.982C180.666 89.8906 180.244 90.4318 179.716 90.9006C179.188 91.3608 178.553 91.723 177.811 91.9872C177.07 92.2429 176.213 92.3707 175.241 92.3707ZM176.801 88.6122C177.602 88.6122 178.31 88.4545 178.923 88.1392C179.537 87.8153 180.018 87.3807 180.368 86.8352C180.717 86.2898 180.892 85.6719 180.892 84.9815V82.8977C180.722 83.0085 180.487 83.1108 180.189 83.2045C179.899 83.2898 179.571 83.3707 179.205 83.4474C178.838 83.5156 178.472 83.5795 178.105 83.6392C177.739 83.6903 177.406 83.7372 177.108 83.7798C176.469 83.8736 175.911 84.0227 175.433 84.2273C174.956 84.4318 174.585 84.7088 174.321 85.0582C174.057 85.3991 173.925 85.8253 173.925 86.3366C173.925 87.0781 174.193 87.6449 174.73 88.0369C175.276 88.4205 175.966 88.6122 176.801 88.6122ZM198.959 92V65.8182H209.442C211.368 65.8182 212.975 66.1037 214.262 66.6747C215.549 67.2457 216.516 68.0384 217.164 69.0526C217.811 70.0582 218.135 71.2173 218.135 72.5298C218.135 73.5526 217.931 74.4517 217.522 75.2273C217.113 75.9943 216.55 76.625 215.834 77.1193C215.127 77.6051 214.317 77.9503 213.405 78.1548V78.4105C214.402 78.4531 215.336 78.7344 216.205 79.2543C217.083 79.7741 217.794 80.5028 218.34 81.4403C218.885 82.3693 219.158 83.4773 219.158 84.7642C219.158 86.1534 218.813 87.3935 218.123 88.4844C217.441 89.5668 216.431 90.4233 215.093 91.054C213.755 91.6847 212.105 92 210.145 92H198.959ZM204.495 87.4744H209.007C210.55 87.4744 211.675 87.1804 212.382 86.5923C213.09 85.9957 213.444 85.2031 213.444 84.2145C213.444 83.4901 213.269 82.8509 212.919 82.2969C212.57 81.7429 212.071 81.3082 211.424 80.9929C210.784 80.6776 210.022 80.5199 209.135 80.5199H204.495V87.4744ZM204.495 76.7741H208.598C209.357 76.7741 210.03 76.642 210.618 76.3778C211.215 76.1051 211.684 75.7216 212.025 75.2273C212.374 74.733 212.549 74.1406 212.549 73.4503C212.549 72.5043 212.212 71.7415 211.539 71.1619C210.874 70.5824 209.928 70.2926 208.701 70.2926H204.495V76.7741ZM222.658 92V72.3636H227.938V75.7898H228.142C228.5 74.571 229.101 73.6506 229.945 73.0284C230.788 72.3977 231.76 72.0824 232.859 72.0824C233.132 72.0824 233.426 72.0994 233.741 72.1335C234.057 72.1676 234.334 72.2145 234.572 72.2741V77.1065C234.317 77.0298 233.963 76.9616 233.511 76.902C233.06 76.8423 232.646 76.8125 232.271 76.8125C231.47 76.8125 230.754 76.9872 230.124 77.3366C229.501 77.6776 229.007 78.1548 228.641 78.7685C228.283 79.3821 228.104 80.0895 228.104 80.8906V92H222.658ZM242.425 92.3707C241.172 92.3707 240.056 92.1534 239.076 91.7188C238.096 91.2756 237.32 90.6236 236.749 89.7628C236.186 88.8935 235.905 87.8111 235.905 86.5156C235.905 85.4247 236.105 84.5085 236.506 83.767C236.907 83.0256 237.452 82.429 238.142 81.9773C238.833 81.5256 239.617 81.1847 240.495 80.9545C241.381 80.7244 242.31 80.5625 243.282 80.4688C244.424 80.3494 245.344 80.2386 246.043 80.1364C246.742 80.0256 247.249 79.8636 247.564 79.6506C247.88 79.4375 248.037 79.1222 248.037 78.7045V78.6278C248.037 77.8182 247.782 77.1918 247.27 76.7486C246.767 76.3054 246.051 76.0838 245.123 76.0838C244.142 76.0838 243.363 76.3011 242.783 76.7358C242.203 77.1619 241.82 77.6989 241.632 78.3466L236.596 77.9375C236.851 76.7443 237.354 75.7131 238.104 74.8438C238.854 73.9659 239.821 73.2926 241.006 72.8239C242.199 72.3466 243.58 72.108 245.148 72.108C246.239 72.108 247.283 72.2358 248.28 72.4915C249.286 72.7472 250.176 73.1435 250.952 73.6804C251.736 74.2173 252.354 74.9077 252.806 75.7514C253.257 76.5866 253.483 77.5881 253.483 78.7557V92H248.319V89.277H248.165C247.85 89.8906 247.428 90.4318 246.9 90.9006C246.371 91.3608 245.736 91.723 244.995 91.9872C244.253 92.2429 243.397 92.3707 242.425 92.3707ZM243.985 88.6122C244.786 88.6122 245.493 88.4545 246.107 88.1392C246.721 87.8153 247.202 87.3807 247.551 86.8352C247.901 86.2898 248.076 85.6719 248.076 84.9815V82.8977C247.905 83.0085 247.671 83.1108 247.373 83.2045C247.083 83.2898 246.755 83.3707 246.388 83.4474C246.022 83.5156 245.655 83.5795 245.289 83.6392C244.922 83.6903 244.59 83.7372 244.292 83.7798C243.652 83.8736 243.094 84.0227 242.617 84.2273C242.14 84.4318 241.769 84.7088 241.505 85.0582C241.24 85.3991 241.108 85.8253 241.108 86.3366C241.108 87.0781 241.377 87.6449 241.914 88.0369C242.459 88.4205 243.15 88.6122 243.985 88.6122ZM274.047 77.9631L269.061 78.2699C268.975 77.8437 268.792 77.4602 268.511 77.1193C268.23 76.7699 267.859 76.4929 267.399 76.2884C266.947 76.0753 266.406 75.9688 265.775 75.9688C264.931 75.9688 264.22 76.1477 263.64 76.5057C263.061 76.8551 262.771 77.3239 262.771 77.9119C262.771 78.3807 262.958 78.777 263.333 79.1009C263.708 79.4247 264.352 79.6847 265.264 79.8807L268.818 80.5966C270.727 80.9886 272.15 81.6193 273.088 82.4886C274.025 83.358 274.494 84.5 274.494 85.9148C274.494 87.2017 274.115 88.331 273.356 89.3026C272.606 90.2741 271.575 91.0327 270.262 91.5781C268.958 92.1151 267.454 92.3835 265.75 92.3835C263.15 92.3835 261.079 91.8423 259.537 90.7599C258.002 89.669 257.103 88.1861 256.839 86.3111L262.196 86.0298C262.358 86.8224 262.75 87.4276 263.372 87.8452C263.994 88.2543 264.791 88.4588 265.762 88.4588C266.717 88.4588 267.484 88.2756 268.064 87.9091C268.652 87.5341 268.95 87.0526 268.958 86.4645C268.95 85.9702 268.741 85.5653 268.332 85.25C267.923 84.9261 267.292 84.679 266.44 84.5085L263.039 83.831C261.122 83.4474 259.694 82.7827 258.757 81.8366C257.828 80.8906 257.363 79.6847 257.363 78.2188C257.363 76.9574 257.704 75.8707 258.386 74.9588C259.076 74.0469 260.044 73.3438 261.288 72.8494C262.541 72.3551 264.007 72.108 265.686 72.108C268.166 72.108 270.118 72.6321 271.541 73.6804C272.973 74.7287 273.808 76.1562 274.047 77.9631ZM277.923 92V72.3636H283.369V92H277.923ZM280.659 69.8324C279.849 69.8324 279.155 69.5639 278.575 69.027C278.004 68.4815 277.719 67.8295 277.719 67.071C277.719 66.321 278.004 65.6776 278.575 65.1406C279.155 64.5952 279.849 64.3224 280.659 64.3224C281.469 64.3224 282.159 64.5952 282.73 65.1406C283.31 65.6776 283.599 66.321 283.599 67.071C283.599 67.8295 283.31 68.4815 282.73 69.027C282.159 69.5639 281.469 69.8324 280.659 69.8324ZM293.178 65.8182V92H287.732V65.8182H293.178ZM306.489 92.3835C304.469 92.3835 302.731 91.9744 301.273 91.1562C299.825 90.3295 298.708 89.1619 297.924 87.6534C297.14 86.1364 296.748 84.3423 296.748 82.2713C296.748 80.2514 297.14 78.4787 297.924 76.9531C298.708 75.4276 299.812 74.2386 301.235 73.3864C302.667 72.5341 304.346 72.108 306.272 72.108C307.567 72.108 308.773 72.3168 309.89 72.7344C311.015 73.1435 311.995 73.7614 312.83 74.5881C313.674 75.4148 314.33 76.4545 314.799 77.7074C315.268 78.9517 315.502 80.4091 315.502 82.0795V83.5753H298.921V80.2003H310.376C310.376 79.4162 310.205 78.7216 309.864 78.1165C309.523 77.5114 309.05 77.0384 308.445 76.6974C307.849 76.348 307.154 76.1733 306.362 76.1733C305.535 76.1733 304.802 76.3651 304.163 76.7486C303.532 77.1236 303.038 77.6307 302.68 78.2699C302.322 78.9006 302.138 79.6037 302.13 80.3793V83.5881C302.13 84.5597 302.309 85.3991 302.667 86.1065C303.033 86.8139 303.549 87.3594 304.214 87.7429C304.879 88.1264 305.667 88.3182 306.579 88.3182C307.184 88.3182 307.738 88.233 308.241 88.0625C308.744 87.892 309.174 87.6364 309.532 87.2955C309.89 86.9545 310.163 86.5369 310.35 86.0426L315.387 86.375C315.131 87.5852 314.607 88.642 313.815 89.5455C313.031 90.4403 312.016 91.1392 310.772 91.642C309.536 92.1364 308.109 92.3835 306.489 92.3835ZM319.056 92V72.3636H324.502V92H319.056ZM321.792 69.8324C320.982 69.8324 320.288 69.5639 319.708 69.027C319.137 68.4815 318.852 67.8295 318.852 67.071C318.852 66.321 319.137 65.6776 319.708 65.1406C320.288 64.5952 320.982 64.3224 321.792 64.3224C322.602 64.3224 323.292 64.5952 323.863 65.1406C324.442 65.6776 324.732 66.321 324.732 67.071C324.732 67.8295 324.442 68.4815 323.863 69.027C323.292 69.5639 322.602 69.8324 321.792 69.8324ZM328.865 92V72.3636H334.145V75.7898H334.349C334.707 74.571 335.308 73.6506 336.152 73.0284C336.995 72.3977 337.967 72.0824 339.066 72.0824C339.339 72.0824 339.633 72.0994 339.949 72.1335C340.264 72.1676 340.541 72.2145 340.779 72.2741V77.1065C340.524 77.0298 340.17 76.9616 339.718 76.902C339.267 76.8423 338.853 76.8125 338.478 76.8125C337.677 76.8125 336.961 76.9872 336.331 77.3366C335.708 77.6776 335.214 78.1548 334.848 78.7685C334.49 79.3821 334.311 80.0895 334.311 80.8906V92H328.865ZM348.632 92.3707C347.379 92.3707 346.263 92.1534 345.283 91.7188C344.303 91.2756 343.527 90.6236 342.956 89.7628C342.393 88.8935 342.112 87.8111 342.112 86.5156C342.112 85.4247 342.313 84.5085 342.713 83.767C343.114 83.0256 343.659 82.429 344.349 81.9773C345.04 81.5256 345.824 81.1847 346.702 80.9545C347.588 80.7244 348.517 80.5625 349.489 80.4688C350.631 80.3494 351.551 80.2386 352.25 80.1364C352.949 80.0256 353.456 79.8636 353.771 79.6506C354.087 79.4375 354.244 79.1222 354.244 78.7045V78.6278C354.244 77.8182 353.989 77.1918 353.477 76.7486C352.974 76.3054 352.259 76.0838 351.33 76.0838C350.349 76.0838 349.57 76.3011 348.99 76.7358C348.411 77.1619 348.027 77.6989 347.839 78.3466L342.803 77.9375C343.058 76.7443 343.561 75.7131 344.311 74.8438C345.061 73.9659 346.028 73.2926 347.213 72.8239C348.406 72.3466 349.787 72.108 351.355 72.108C352.446 72.108 353.49 72.2358 354.487 72.4915C355.493 72.7472 356.384 73.1435 357.159 73.6804C357.943 74.2173 358.561 74.9077 359.013 75.7514C359.464 76.5866 359.69 77.5881 359.69 78.7557V92H354.526V89.277H354.372C354.057 89.8906 353.635 90.4318 353.107 90.9006C352.578 91.3608 351.943 91.723 351.202 91.9872C350.46 92.2429 349.604 92.3707 348.632 92.3707ZM350.192 88.6122C350.993 88.6122 351.7 88.4545 352.314 88.1392C352.928 87.8153 353.409 87.3807 353.759 86.8352C354.108 86.2898 354.283 85.6719 354.283 84.9815V82.8977C354.112 83.0085 353.878 83.1108 353.58 83.2045C353.29 83.2898 352.962 83.3707 352.595 83.4474C352.229 83.5156 351.862 83.5795 351.496 83.6392C351.129 83.6903 350.797 83.7372 350.499 83.7798C349.859 83.8736 349.301 84.0227 348.824 84.2273C348.347 84.4318 347.976 84.7088 347.712 85.0582C347.447 85.3991 347.315 85.8253 347.315 86.3366C347.315 87.0781 347.584 87.6449 348.121 88.0369C348.666 88.4205 349.357 88.6122 350.192 88.6122ZM347.903 69.9474L344.874 69.9091C344.874 68.2812 345.274 67.0327 346.075 66.1634C346.885 65.294 347.869 64.8551 349.028 64.8466C349.625 64.8466 350.136 64.9446 350.562 65.1406C350.997 65.3281 351.385 65.5497 351.726 65.8054C352.075 66.0611 352.408 66.2869 352.723 66.483C353.038 66.6705 353.379 66.7642 353.746 66.7642C354.24 66.7557 354.615 66.5724 354.871 66.2145C355.135 65.848 355.267 65.3707 355.267 64.7827L358.246 64.8722C358.229 66.483 357.82 67.7273 357.018 68.6051C356.217 69.4744 355.241 69.9134 354.091 69.9219C353.452 69.9219 352.915 69.8281 352.48 69.6406C352.054 69.4446 351.679 69.223 351.355 68.9759C351.031 68.7202 350.716 68.4943 350.409 68.2983C350.102 68.1023 349.757 68.0043 349.374 68.0043C348.93 68.0043 348.572 68.179 348.3 68.5284C348.036 68.8778 347.903 69.3509 347.903 69.9474ZM372.788 92.3835C370.802 92.3835 369.085 91.9616 367.636 91.1179C366.195 90.2656 365.083 89.081 364.299 87.5639C363.515 86.0384 363.123 84.2699 363.123 82.2585C363.123 80.2301 363.515 78.4574 364.299 76.9403C365.083 75.4148 366.195 74.2301 367.636 73.3864C369.085 72.5341 370.802 72.108 372.788 72.108C374.773 72.108 376.487 72.5341 377.927 73.3864C379.376 74.2301 380.492 75.4148 381.276 76.9403C382.06 78.4574 382.452 80.2301 382.452 82.2585C382.452 84.2699 382.06 86.0384 381.276 87.5639C380.492 89.081 379.376 90.2656 377.927 91.1179C376.487 91.9616 374.773 92.3835 372.788 92.3835ZM372.813 88.1648C373.717 88.1648 374.471 87.9091 375.076 87.3977C375.681 86.8778 376.137 86.1705 376.444 85.2756C376.759 84.3807 376.917 83.3622 376.917 82.2202C376.917 81.0781 376.759 80.0597 376.444 79.1648C376.137 78.2699 375.681 77.5625 375.076 77.0426C374.471 76.5227 373.717 76.2628 372.813 76.2628C371.901 76.2628 371.134 76.5227 370.512 77.0426C369.898 77.5625 369.434 78.2699 369.119 79.1648C368.812 80.0597 368.658 81.0781 368.658 82.2202C368.658 83.3622 368.812 84.3807 369.119 85.2756C369.434 86.1705 369.898 86.8778 370.512 87.3977C371.134 87.9091 371.901 88.1648 372.813 88.1648Z" fill="white"/>
<rect width="313" height="513" transform="translate(71 128)" fill="#9FAAAA" fill-opacity="0.1"/>
<rect x="71" y="128" width="313" height="23" fill="black"/>
<path d="M72.7279 188.196C137.162 188.196 201.597 188.196 266.031 188.196C290.138 188.196 314.244 188.196 338.351 188.196C349.154 188.196 359.958 188.196 370.761 188.196C373.282 188.196 375.803 188.196 378.324 188.196C379.29 188.196 380.256 188.196 381.221 188.196C381.704 188.196 382.187 188.196 382.669 188.196C384.879 188.196 383.815 208.089 383.828 209.052" stroke="#302B36" stroke-width="3" stroke-linecap="round"/>
<path d="M70.4106 214.845L383.828 214.845" stroke="#302B36" stroke-width="3" stroke-linecap="round"/>
<path d="M383.828 209.631V215.425" stroke="#302B36" stroke-width="3" stroke-linecap="round"/>
<path d="M69.8312 187.617V213.687" stroke="#302B36" stroke-width="3" stroke-linecap="round"/>
<rect width="769" height="513" transform="translate(489 128)" fill="#9FAAAA" fill-opacity="0.1"/>
</g>
<defs>
<linearGradient id="paint0_linear_1_3" x1="-137" y1="461" x2="733" y2="1231.5" gradientUnits="userSpaceOnUse">
<stop stop-color="#7305FF" stop-opacity="0.47"/>
<stop offset="0.0552886" stop-color="#420190" stop-opacity="0.738843"/>
<stop offset="0.378841" stop-color="#1C042B" stop-opacity="0"/>
<stop offset="0.654916" stop-color="#210439" stop-opacity="0.103871"/>
<stop offset="0.852101" stop-color="#1C58B4" stop-opacity="0.411762"/>
</linearGradient>
</defs>
</svg>
